<?xml version="1.0" encoding="utf-8"?>
<!-- Generator: Adobe Illustrator 22.1.0, SVG Export Plug-In . SVG Version: 6.00 Build 0)  -->
<svg version="1.1" id="图层_1" xmlns="http://www.w3.org/2000/svg" xmlns:xlink="http://www.w3.org/1999/xlink" x="0px" y="0px"
	 width="165px" height="48px" viewBox="0 0 165 48" style="enable-background:new 0 0 165 48;" xml:space="preserve">
<style type="text/css">
	.st0{fill:#FFFFFF;}
</style>
<g>
	<path class="st0" d="M0.2,12.1v23.8l20.6,11.9l20.6-11.9V12.1L20.8,0.2L0.2,12.1z M20.6,33.4l7.9-4.5V23l-8.2,4.6V21l11-6.3l3,1.7
		v15.8l-13.7,7.9L6.8,32.2V16.3l13.7-7.9l5.5,3.3l-13.4,8v9.1L20.6,33.4z"/>
	<path class="st0" d="M48.3,24.9h11v1.6H48.5v2.3h10.8v2.7H48.5v2.3h23.8v-2.3H61.6v-2.7h10.8v-2.3H61.6v-1.6h11v-12H48.3V24.9z
		 M61.6,15.2h8.7v7.3h-4.1l3-3l-1.6-1.6l-6,6V15.2z M50.6,15.2h8.7v8.5l-5.9-5.9l-1.6,1.6l3.1,3.1h-4.3V15.2z"/>
	<rect x="68.2" y="36.5" class="st0" width="4.2" height="2.3"/>
	<rect x="61.6" y="36.5" class="st0" width="4.2" height="2.3"/>
	<rect x="55.1" y="36.5" class="st0" width="4.2" height="2.3"/>
	<rect x="48.5" y="36.5" class="st0" width="4.2" height="2.3"/>
	<polygon class="st0" points="133.9,23 113.4,23 113.4,15.2 131.8,15.2 131.8,18.1 115.6,18.1 115.6,20.4 134.1,20.4 134.1,12.9 
		111.1,12.9 111.1,25.3 133.9,25.3 	"/>
	<polygon class="st0" points="131.1,26.6 128.8,26.6 128.8,28.2 111.6,28.2 111.6,30.5 128.8,30.5 128.8,36.4 120.9,36.4 
		115.7,32.1 114.2,33.9 120.1,38.7 131.1,38.7 131.1,30.5 134.2,30.5 134.2,28.2 131.1,28.2 	"/>
	<path class="st0" d="M148,11.4l-1-2.1l-6.1,3v10.9h-2.5v2.3h2.5v6.3l-2.7,6.5l2.1,0.9l2.8-6.9v-6.7h5V36H146v2.3h4.4V12.9H145
		L148,11.4z M148.2,15.2v8.1h-5v-8.1C143.2,15.2,148.2,15.2,148.2,15.2z"/>
	<rect x="144.2" y="17.1" class="st0" width="2.3" height="4.6"/>
	<rect x="144.2" y="27.2" class="st0" width="2.3" height="5.5"/>
	<polygon class="st0" points="163.1,12.9 158.2,12.9 158.2,11 156,11 156,12.9 152.4,12.9 152.4,15.2 163.1,15.2 	"/>
	<polygon class="st0" points="162.2,26.3 162.2,36.4 160.8,36.4 160.8,17.5 152.4,17.5 152.4,31.1 151,39 153.3,39.4 154.7,31.4 
		154.7,19.8 158.5,19.8 158.5,38.7 164.5,38.7 164.5,26.3 	"/>
	<polygon class="st0" points="85.3,9.8 83,9.8 83,13 78.9,13 78.9,15.3 83,15.3 83,38.8 85.3,38.8 85.3,21 86.3,23.4 86.3,38.7 
		88.6,38.7 88.6,22.9 86.2,17.2 85.3,17.6 85.3,15.3 89,15.3 89,13 85.3,13 	"/>
	<polygon class="st0" points="105.5,19.4 105.3,14.7 94.8,14.7 94.8,17 103.1,17 103.1,18 97.7,20.7 92.7,18.5 92.7,15.5 96.7,13.1 
		95.5,11.1 90.4,14.2 90.4,20 95,22 89.3,24.9 90.3,26.9 97.8,23.2 105.5,26.6 106.4,24.5 100.4,21.9 	"/>
	<path class="st0" d="M90.2,38.7h15.3V28.1H90.2V38.7z M92.5,30.4h10.7v6H92.5V30.4z"/>
	<rect x="79.6" y="17.9" class="st0" width="2.3" height="20.8"/>
</g>
</svg>
